<svg xmlns="http://www.w3.org/2000/svg" width="258.661" height="58.776" viewBox="0 0 258.661 58.776">
  <g id="c" transform="translate(0 -9)">
    <g id="Grupo_3" data-name="Grupo 3" transform="translate(0)">
      <g id="Grupo_1" data-name="Grupo 1" transform="translate(0 9)">
        <path id="Caminho_1" data-name="Caminho 1" d="M178.324,159.111c-11.3-2.9-32.624-7.027-46.128-7.021-14.2.009-19.767,2.456-20.67,4.818s2.859,4.636,3.674,4.483c1.109-.209-1.68-2.018-.335-3.762,1.806-2.344,9.048-4.427,27.264-2.936,32.371,2.65,49.831,10.686,50.3,10.686s1.2-2.341-14.107-6.268Z" transform="translate(-101.504 -107.352)" fill="#ebfff7"/>
        <path id="Caminho_2" data-name="Caminho 2" d="M130.72,44.746c2.371,1.191,34.83,5.015,41.56,12.284,1.48,1.6,4.656-.527-.979-3.886-.885-32.206-10.022-43.275-16.51-46.749a17.418,17.418,0,0,0-5.3-1.58,7.653,7.653,0,0,0-.656-3.456.832.832,0,0,0-.729-.582L139.009,0a.826.826,0,0,0-.638.212.8.8,0,0,0-.271.6V2.574c-3.8-.088-8.121-.059-8.93.474a2.314,2.314,0,0,0-.821,1.121c-.288.653-.618,1.391-2.594,2-26.494,8.113-25.847,29.959-25.391,34.615-6.106.129-11.21.753-14.575,2-20.376,7.551,4.383,17.187,6.127,15.869S67.363,48.9,94.054,44.3a112.313,112.313,0,0,1,13.2-1.259c1.318,0,3.953.159,3.989-.909s-2.4-1.253-3.718-1.3c-.159-1.324-.374-4.242.5-6.109.971-2.074-5.283-1.124-5.224-4.795,1.965-7.745,7.7-17.393,23.452-22.217,2.5-.765,3.165-1.856,3.63-2.906a4.124,4.124,0,0,0,.159-.382,10.369,10.369,0,0,1,2.138-.206,44.875,44.875,0,0,1,.356,6.3.835.835,0,0,0,.838.824h.012a.838.838,0,0,0,.827-.85,57.445,57.445,0,0,0-.341-6.309c1.441-.018,3.086-.009,4.653.029,0,1.165-.038,2.58-.079,4.042l-.068,2.5a.839.839,0,0,0,.818.856h.021a.84.84,0,0,0,.838-.818l.065-2.488a47.3,47.3,0,0,0-.044-6.577l7.192.615a13.191,13.191,0,0,1,.321,3.442.394.394,0,0,1-.009.082.757.757,0,0,0,.006.141,24.854,24.854,0,0,1-1.144,6.527A.836.836,0,0,0,147,13.575a.783.783,0,0,0,.244.038.836.836,0,0,0,.8-.591,27.319,27.319,0,0,0,1.165-6.074,14.191,14.191,0,0,1,4.383,1.8,23.527,23.527,0,0,0,.2,3.283c5.665,5.712,7.195,9.419,8.442,13.331s3.847,16.69-3.742,15.86c-6.142-.674-7.312,3.709-7.533,5.4-2.656-.6-5.406-1.177-8.227-1.709l-.285-4.715a2.144,2.144,0,0,0-1.509-1.921l-4.448-1.374a1.034,1.034,0,0,0-1.338,1.032l.241,5.706c-5.527-.609-7.2-2.468-7.745-2.027-.512.418.7,1.933,3.074,3.127Z" transform="translate(-77.787 0.004)" fill="#ebfff7"/>
      </g>
      <g id="Grupo_2" data-name="Grupo 2" transform="translate(105.154 12.061)">
        <path id="Caminho_3" data-name="Caminho 3" d="M10.062,182.38c5.456.121,10.545,2.75,11.2,8.654.321,2.915-2.035,6.868-6.707,10.3-3.812,2.4-5.589,2.721-6.159,4.168a12.633,12.633,0,0,0-.527,4.568c-.015,1.98,1,4.024.609,5.012-.427,1.088-1.68,1.644-3.386,1.865s-2.288-1.65-2.327-3.815a30.692,30.692,0,0,0,.991-7.445C3.97,200.585,3.1,190,3.1,190l-.812.015Q.055,189.86.02,187.828L0,186.61c-.021-1.241,1.041-2.791,4.15-3.656,1.418-.394,3.642-.253,5.709-.571h.2Zm-1.862,6.8a.769.769,0,0,0-.126.459l.262,5.177.112,3.924a.694.694,0,0,0,1.074.565c2.118-1.4,6.739-4.75,6.789-7.307a4.51,4.51,0,0,0-.947-3.191,6.489,6.489,0,0,0-5.609-1.059A4.467,4.467,0,0,0,8.2,189.184Z" transform="translate(0.001 -182.38)" fill="#ebfff7"/>
        <path id="Caminho_4" data-name="Caminho 4" d="M78.727,234.488c3.6.641,4.977,5.221,3.236,6.312-1.047.656-1.694-1.135-2-1.35-2.8-1.983-8.274,4.153-8.389,7.58a18.311,18.311,0,0,0,.538,3.762l-.1,1.009q-.11,1.059-2.627,1.768l-.4-.041c-2.153-.221-.971-6.586-.829-9.61.085-2.165-2.3-9.186-.253-9.654,1.68-.227,3.08,1.621,3.392,3.965a.254.254,0,0,0,.468.112,8.259,8.259,0,0,1,6.968-3.85Z" transform="translate(-47.338 -218.99)" fill="#ebfff7"/>
        <path id="Caminho_5" data-name="Caminho 5" d="M127.448,231.048c1.824-.477,4.877-.271,6.115.588s2.344,3.689,2.412,7.583c.059,3.356-.594,6.227-2.209,7.883-2.633,2.65-4.977,3.983-7.033,4.03-5.368.121-5.921-3.362-5.951-5.048a28.346,28.346,0,0,1,1.959-9.8c1.559-3.106,2.883-4.756,4.7-5.236Zm-2.706,14.3c.253,1.062.715,1.077,1.024,1.2,6.674,1.933,9.166-11.322,5.318-12.457-5.03.088-6.395,5.786-6.345,11.081v.176Z" transform="translate(-85.253 -216.556)" fill="#ebfff7"/>
        <path id="Caminho_6" data-name="Caminho 6" d="M189.855,190.495c.059,1.583,1.188,16.263,1.115,22.132-.006.427,1.332-.159,1.359,1.365.044,2.565-7.86,7.833-12.381,7.11-4.933-.791-11.842-2.477-2.456-14.6a13.34,13.34,0,0,1,8.766-5.177c1.247-8.092-1.315-10.636.468-12.513,0,0,3.542-1.794,3.13,1.683Zm-11.628,26.361c1.521,2.341,6.371-.674,7.457-1.521.718-.562,1.15-2.324,1.271-4.724.062-1.206.447-4.227-.7-5.186-2.388-2.006-9.972,8.439-8.03,11.431Z" transform="translate(-121.998 -186.591)" fill="#ebfff7"/>
        <path id="Caminho_7" data-name="Caminho 7" d="M261.972,224.91c1.994.159.95,5.3.8,8.195.159,3.824.688,8.807,1.515,10.289.532.953-.85,3.383-3.177,1.712-1.218-.874-.488-1.383-2.165-4.289.053-.265-.421-1.7-.988-1.909-3.147,4.012-5.392,8.436-7.61,7.989-1.624-1.047-1.968-3.8-2.174-5.2-.3-2.133-.45-4.853-.888-9.554-.144-1.544-3.565,5.659-4.65,4.521-3.156-3.312,5.648-10.83,6.96-11.422s2.215-.55,2.786.241-.406,3.053-.488,5.727c-.115,3.8-.2,7.957.215,8.039,1.933-1.4,3.244-3.468,6.118-9.539.941-2.124,1.756-4.962,3.75-4.8Z" transform="translate(-170.783 -212.35)" fill="#ebfff7"/>
        <path id="Caminho_8" data-name="Caminho 8" d="M323.828,191.73q2.713.428,2.771,3.562c.024,1.324-.3,5.548.179,5.542,0,0,4.395-1.288,6.395-.968,1.447.232,2.288.706,2.38,1.668.021,1.109-2.612.859-4.674,1.685a26.827,26.827,0,0,0-4.05,2.13l-.021,2.133-.144,12.425h.179q-.322,3.614-2.465,3.65H324.2q-1.849.035-2.58-3.021a68.307,68.307,0,0,1,.388-8.769l.006-5.077a6.927,6.927,0,0,0-2.6.874c-1.612.835-1.853,1.091-2.438,1.174-1.385.2-4.442-1.815,1.962-5.495,1.4-.8,3.039-1.2,3.256-1.641a53.9,53.9,0,0,0-.85-7.3,2.233,2.233,0,0,1,2.483-2.571Z" transform="translate(-222.356 -188.98)" fill="#ebfff7"/>
        <path id="Caminho_9" data-name="Caminho 9" d="M381.089,210.2q1.787.088,1.738,7.424l-.329,10.469q-.529,2.771-2.924,2.656a3.363,3.363,0,0,1-1.783-2.883l.294-6.1.068-1.394c-.047-3.877-.268-8.927-.268-8.927q.066-1.394,3.206-1.244Zm-1.733-8.236c1.435-.191,2.971.256,3.347,1.688s-.879,3.856-2.724,3.889-2.533-1.815-2.668-2.921a2.411,2.411,0,0,1,2.047-2.653Z" transform="translate(-266.316 -196.171)" fill="#ebfff7"/>
        <path id="Caminho_10" data-name="Caminho 10" d="M410.112,234.746c-2.477,5.974-2.683,12.8-5.645,12.872s-1.394-3.371-3.683-8.739c-1.712-5.139-5.933-10.236-2.277-10.789,1.9-.288,3.447,1.63,4.518,5.159.985,3.253,1.721,5.3,2.174,5.695-.615-.309,3.4-14.6,5.883-13s1.077,3.868-.968,8.8Z" transform="translate(-280.266 -213.041)" fill="#ebfff7"/>
        <path id="Caminho_11" data-name="Caminho 11" d="M456.471,233.052c.485,1.25.559,2.115.429,4.921s.279,7.307,2.924,7.26c1.1-.021,1.68,1.4,1.694,2.362.032,1.847-2.191,1.668-3.033,1.683-2,.035-3.733-2.633-4.73-5.527,0,0-.112-.259-.329.006s-3.906,4.633-5.1,5.348c0,0-6.224,3.847-5.98-5.348.1-3.647,1.45-7.136,2.791-10.569,3.347-8.554,10.851-1.385,11.333-.135Zm-9.854,12.263c.768.4,6.1-6.865,6.051-9.51a3.2,3.2,0,0,0-2.63-3.086C448.491,232.746,444.532,244.229,446.617,245.315Z" transform="translate(-312.224 -215.324)" fill="#ebfff7"/>
      </g>
      <text id="SAÚDE_OCUPACIONAL" data-name="SAÚDE OCUPACIONAL" transform="translate(107.661 53.813)" fill="#ebfff7" font-size="10" font-family="Montserrat-Medium, Montserrat" font-weight="500" letter-spacing="0.2em"><tspan x="0" y="10">SAÚDE OCUPACIONAL</tspan></text>
    </g>
  </g>
</svg>
