<svg xmlns="http://www.w3.org/2000/svg" width="78.44" height="71.834" viewBox="0 0 78.44 71.834">
  <g id="contract-1943" transform="translate(127.036 116.144)">
    <g id="Grupo_60" data-name="Grupo 60" transform="translate(-126.036 -115.144)">
      <path id="Caminho_72" data-name="Caminho 72" d="M75.591,71.763H61.91V19.007a8.124,8.124,0,0,0-8.115-8.115H8.115A8.124,8.124,0,0,0,0,19.007a.85.85,0,0,0,.849.849H14.531V72.611a8.124,8.124,0,0,0,8.115,8.115H68.325a8.124,8.124,0,0,0,8.115-8.115A.848.848,0,0,0,75.591,71.763ZM1.755,18.158a6.417,6.417,0,0,1,12.721,0ZM16.23,72.612V19.007a8.1,8.1,0,0,0-3.165-6.416h40.73a6.424,6.424,0,0,1,6.417,6.416V71.762h-30.3a.849.849,0,0,0-.849.849,6.416,6.416,0,1,1-12.832,0Zm52.095,6.416H27.6a8.112,8.112,0,0,0,3.114-5.567H74.686A6.428,6.428,0,0,1,68.325,79.028Z" transform="translate(0 -10.892)" fill="#4adda4"/>
      <path id="Path_72_-_Outline" data-name="Path 72 - Outline" d="M68.325,81.726H22.646a9.125,9.125,0,0,1-9.115-9.115V20.856H.849A1.851,1.851,0,0,1-1,19.007,9.125,9.125,0,0,1,8.115,9.892h45.68a9.125,9.125,0,0,1,9.115,9.115V70.763H75.591a1.851,1.851,0,0,1,1.849,1.848A9.126,9.126,0,0,1,68.325,81.726Zm-43.584-2h.328l.258-.2Q25.039,79.638,24.741,79.726Zm5.226-1.7H68.325a5.439,5.439,0,0,0,5.092-3.567H31.572A9.153,9.153,0,0,1,29.967,78.028ZM15.44,13.591a9.025,9.025,0,0,1,1.79,5.416V72.612a5.416,5.416,0,1,0,10.832,0,1.851,1.851,0,0,1,1.849-1.849h29.3V19.007a5.422,5.422,0,0,0-5.417-5.416ZM3.024,17.158H13.206a5.417,5.417,0,0,0-10.182,0Z" transform="translate(0 -10.892)" fill="#4adda4"/>
      <path id="Caminho_73" data-name="Caminho 73" d="M107.684,67.646H80.8a.849.849,0,0,1,0-1.7h26.881a.849.849,0,0,1,0,1.7Z" transform="translate(-55.708 -49.252)" fill="#4adda4"/>
      <path id="Path_73_-_Outline" data-name="Path 73 - Outline" d="M107.684,68.646H80.8a1.849,1.849,0,0,1,0-3.7h26.881a1.849,1.849,0,1,1,0,3.7Z" transform="translate(-55.708 -49.252)" fill="#4adda4"/>
      <path id="Caminho_74" data-name="Caminho 74" d="M107.684,102.407H80.8a.849.849,0,1,1,0-1.7h26.881a.849.849,0,1,1,0,1.7Z" transform="translate(-55.708 -73.472)" fill="#4adda4"/>
      <path id="Path_74_-_Outline" data-name="Path 74 - Outline" d="M107.684,103.407H80.8a1.849,1.849,0,1,1,0-3.7h26.881a1.849,1.849,0,1,1,0,3.7Z" transform="translate(-55.708 -73.472)" fill="#4adda4"/>
      <path id="Caminho_75" data-name="Caminho 75" d="M107.684,137.168H80.8a.849.849,0,1,1,0-1.7h26.881a.849.849,0,1,1,0,1.7Z" transform="translate(-55.708 -97.691)" fill="#4adda4"/>
      <path id="Path_75_-_Outline" data-name="Path 75 - Outline" d="M107.684,138.168H80.8a1.849,1.849,0,0,1,0-3.7h26.881a1.849,1.849,0,1,1,0,3.7Z" transform="translate(-55.708 -97.691)" fill="#4adda4"/>
      <path id="Caminho_76" data-name="Caminho 76" d="M124.192,172.267a.848.848,0,0,1-.849-.837q-.023-1.486-.1-2.969c-.047.02-.1.046-.166.08l-6.574,3.478a.85.85,0,1,1-.795-1.5l6.576-3.479c1.227-.648,1.915-.227,2.215.086a1.792,1.792,0,0,1,.439,1.219q.038.759.065,1.519l6.81-4.51a.849.849,0,0,1,.938,1.417l-8.09,5.358A.861.861,0,0,1,124.192,172.267Z" transform="translate(-80.306 -118.414)" fill="#4adda4"/>
      <path id="Path_76_-_Outline" data-name="Path 76 - Outline" d="M124.192,173.267a1.848,1.848,0,0,1-1.849-1.82c-.007-.458-.018-.915-.032-1.368l-5.338,2.824a1.85,1.85,0,1,1-1.73-3.27l6.575-3.479a3.559,3.559,0,0,1,1.653-.456,2.4,2.4,0,0,1,1.75.732,2.626,2.626,0,0,1,.7,1.625l5.34-3.536A1.849,1.849,0,0,1,133.3,167.6l-8.1,5.362A1.855,1.855,0,0,1,124.192,173.267Z" transform="translate(-80.306 -118.414)" fill="#4adda4"/>
    </g>
  </g>
</svg>
