<svg xmlns="http://www.w3.org/2000/svg" width="69.354" height="69.354" viewBox="0 0 69.354 69.354">
  <g id="quantum-computer-chip-14402" transform="translate(126.436 126.434)">
    <g id="Grupo_22" data-name="Grupo 22" transform="translate(-126.036 -126.034)">
      <path id="Caminho_22" data-name="Caminho 22" d="M80.092,177.314a31.916,31.916,0,0,1-9.032-1.434c-8.622-2.56-17.7-8.3-25.565-16.167a75.474,75.474,0,0,1-6.873-7.886,1.523,1.523,0,1,1,2.431-1.834,72.388,72.388,0,0,0,6.595,7.566c7.512,7.512,16.135,12.981,24.279,15.4,7.82,2.323,14.2,1.536,17.951-2.217,3.359-3.358,4.351-8.958,2.793-15.767a1.523,1.523,0,1,1,2.969-.679c1.8,7.868.519,14.473-3.608,18.6C89.1,175.824,85,177.313,80.092,177.314Z" transform="translate(-27.894 -108.76)" fill="#4adda4"/>
      <path id="Path_22_-_Outline" data-name="Path 22 - Outline" d="M80.092,177.714h0a32.347,32.347,0,0,1-9.146-1.45c-8.682-2.578-17.821-8.355-25.734-16.267a75.872,75.872,0,0,1-6.909-7.928,1.926,1.926,0,0,1,.377-2.693,1.922,1.922,0,0,1,2.693.377,72,72,0,0,0,6.558,7.524c7.465,7.465,16.028,12.9,24.11,15.3a28.535,28.535,0,0,0,8.048,1.293c3.989,0,7.276-1.179,9.506-3.409,3.258-3.258,4.212-8.725,2.686-15.395a1.922,1.922,0,0,1,1.446-2.3,1.915,1.915,0,0,1,2.3,1.446c1.832,8.006.513,14.744-3.715,18.972a14.709,14.709,0,0,1-5.37,3.4A19.8,19.8,0,0,1,80.092,177.714ZM39.835,149.787a1.109,1.109,0,0,0-.674.227,1.125,1.125,0,0,0-.22,1.573,75.069,75.069,0,0,0,6.836,7.844c7.82,7.819,16.84,13.525,25.4,16.066a31.552,31.552,0,0,0,8.919,1.417c4.813,0,8.844-1.488,11.656-4.3,4.026-4.027,5.27-10.5,3.5-18.228a1.114,1.114,0,0,0-1.088-.874,1.131,1.131,0,0,0-.256.03,1.123,1.123,0,0,0-.846,1.345c1.59,6.948.56,12.68-2.9,16.139a11.732,11.732,0,0,1-4.385,2.734,16.844,16.844,0,0,1-5.687.909,29.328,29.328,0,0,1-8.275-1.326c-8.207-2.438-16.89-7.943-24.448-15.5a72.8,72.8,0,0,1-6.631-7.608A1.116,1.116,0,0,0,39.835,149.787Z" transform="translate(-27.894 -108.76)" fill="#4adda4"/>
      <path id="Caminho_23" data-name="Caminho 23" d="M56.307,27.492a1.52,1.52,0,0,1-1.21-.6,72.755,72.755,0,0,0-6.27-7.14c-7.513-7.513-16.135-12.982-24.279-15.4C16.727,2.031,10.352,2.818,6.6,6.572,3.1,10.066,2.176,15.931,3.985,23.087a1.523,1.523,0,1,1-2.953.747C-1.051,15.6.161,8.7,4.444,4.419c4.58-4.58,12.029-5.64,20.971-2.984C34.038,4,43.117,9.738,50.981,17.6a75.586,75.586,0,0,1,6.535,7.44,1.523,1.523,0,0,1-1.209,2.449Z" transform="translate(-0.027 -0.002)" fill="#4adda4"/>
      <path id="Path_23_-_Outline" data-name="Path 23 - Outline" d="M56.307,27.892a1.91,1.91,0,0,1-1.527-.753,72.351,72.351,0,0,0-6.235-7.1c-7.466-7.466-16.028-12.9-24.11-15.3a28.544,28.544,0,0,0-8.048-1.293c-3.988,0-7.276,1.179-9.506,3.409-3.39,3.39-4.281,9.12-2.508,16.134a1.923,1.923,0,1,1-3.729.943c-2.118-8.379-.869-15.41,3.517-19.8a14.708,14.708,0,0,1,5.37-3.4A19.8,19.8,0,0,1,16.384-.4a32.359,32.359,0,0,1,9.146,1.45c8.684,2.579,17.823,8.357,25.734,16.268a75.987,75.987,0,0,1,6.569,7.48,1.923,1.923,0,0,1-1.526,3.092ZM16.387,2.645a29.337,29.337,0,0,1,8.276,1.326c8.207,2.438,16.889,7.943,24.448,15.5a73.151,73.151,0,0,1,6.3,7.179A1.123,1.123,0,1,0,57.2,25.286a75.188,75.188,0,0,0-6.5-7.4C42.88,10.066,33.86,4.36,25.3,1.818A31.564,31.564,0,0,0,16.384.4C11.571.4,7.54,1.889,4.727,4.7.548,8.881-.627,15.641,1.42,23.736A1.123,1.123,0,0,0,3.6,23.185c-1.845-7.3-.88-13.3,2.718-16.9A11.732,11.732,0,0,1,10.7,3.555,16.843,16.843,0,0,1,16.387,2.645Z" transform="translate(-0.027 -0.002)" fill="#4adda4"/>
      <path id="Caminho_24" data-name="Caminho 24" d="M16.365,97.676c-4.92,0-9.026-1.49-11.949-4.413-4.58-4.58-5.64-12.028-2.983-20.971,2.561-8.622,8.3-17.7,16.167-25.565a75.691,75.691,0,0,1,7.269-6.4,1.523,1.523,0,1,1,1.86,2.412,72.737,72.737,0,0,0-6.975,6.144c-7.514,7.513-12.983,16.135-15.4,24.279C2.03,80.981,2.817,87.356,6.57,91.109c3.672,3.672,9.888,4.506,17.5,2.348a1.523,1.523,0,1,1,.83,2.93A31.466,31.466,0,0,1,16.365,97.676Z" transform="translate(0 -29.126)" fill="#4adda4"/>
      <path id="Path_24_-_Outline" data-name="Path 24 - Outline" d="M16.365,98.076A19.849,19.849,0,0,1,9.5,96.941a14.691,14.691,0,0,1-5.371-3.4C-.556,88.857-1.651,81.268,1.05,72.177c2.579-8.684,8.357-17.823,16.268-25.734a76.082,76.082,0,0,1,7.308-6.436,1.923,1.923,0,1,1,2.348,3.045,72.345,72.345,0,0,0-6.936,6.11c-7.466,7.465-12.9,16.028-15.3,24.11-2.28,7.676-1.528,13.91,2.117,17.554,2.228,2.228,5.518,3.405,9.515,3.405a28.113,28.113,0,0,0,7.6-1.159A1.922,1.922,0,0,1,26.338,94.4a1.922,1.922,0,0,1-1.326,2.374A31.892,31.892,0,0,1,16.365,98.076ZM25.8,40.406a1.111,1.111,0,0,0-.685.234,75.282,75.282,0,0,0-7.231,6.368c-7.819,7.819-13.525,16.838-16.067,25.4C-.8,81.2.227,88.508,4.7,92.98c2.811,2.811,6.845,4.3,11.666,4.3A31.1,31.1,0,0,0,24.793,96a1.123,1.123,0,0,0-.305-2.2,1.129,1.129,0,0,0-.307.043,28.906,28.906,0,0,1-7.813,1.189,16.9,16.9,0,0,1-5.695-.909,11.713,11.713,0,0,1-4.386-2.731C2.426,87.531,1.6,81.015,3.97,73.044c2.438-8.207,7.944-16.89,15.5-24.448a73.149,73.149,0,0,1,7.014-6.178,1.123,1.123,0,0,0-.687-2.013Z" transform="translate(0 -29.126)" fill="#4adda4"/>
      <path id="Caminho_25" data-name="Caminho 25" d="M146.966,58.946a1.523,1.523,0,0,1-.9-2.757,71.739,71.739,0,0,0,8.616-7.37c7.512-7.513,12.981-16.135,15.4-24.279,2.323-7.822,1.536-14.2-2.217-17.951-3.581-3.58-9.617-4.464-17-2.487a1.523,1.523,0,1,1-.788-2.942C158.56-1.111,165.64.052,170.023,4.435c4.581,4.58,5.64,12.028,2.984,20.971-2.56,8.622-8.3,17.7-16.167,25.565a74.62,74.62,0,0,1-8.983,7.683A1.5,1.5,0,0,1,146.966,58.946Z" transform="translate(-105.886 -0.019)" fill="#4adda4"/>
      <path id="Path_25_-_Outline" data-name="Path 25 - Outline" d="M146.966,59.346a1.923,1.923,0,0,1-1.13-3.481,71.344,71.344,0,0,0,8.568-7.329c7.466-7.466,12.9-16.029,15.3-24.11,2.28-7.675,1.528-13.909-2.117-17.555-2.226-2.225-5.519-3.4-9.525-3.4a27.6,27.6,0,0,0-7.085,1.018,1.923,1.923,0,0,1-1-3.715,31.428,31.428,0,0,1,8.083-1.148,19.905,19.905,0,0,1,6.87,1.135,14.667,14.667,0,0,1,5.371,3.392c4.69,4.689,5.785,12.277,3.084,21.368-2.578,8.682-8.355,17.821-16.267,25.734a75.033,75.033,0,0,1-9.031,7.725A1.9,1.9,0,0,1,146.966,59.346Zm11.1-56.675a16.956,16.956,0,0,1,5.7.909,11.7,11.7,0,0,1,4.387,2.727c3.862,3.863,4.685,10.379,2.318,18.348-2.438,8.206-7.943,16.889-15.5,24.448a72.147,72.147,0,0,1-8.664,7.411,1.123,1.123,0,0,0,.66,2.033,1.1,1.1,0,0,0,.655-.213,74.233,74.233,0,0,0,8.936-7.643c7.82-7.82,13.525-16.84,16.066-25.4,2.613-8.8,1.589-16.1-2.883-20.575C166.932,1.91,162.895.426,158.064.426a30.631,30.631,0,0,0-7.876,1.12,1.123,1.123,0,1,0,.581,2.17A28.4,28.4,0,0,1,158.061,2.671Z" transform="translate(-105.886 -0.019)" fill="#4adda4"/>
      <g id="edit_1_" data-name="edit (1)" transform="translate(24.886 24.351)">
        <path id="União_1" data-name="União 1" d="M-941.52-1536.229a1.813,1.813,0,0,1-1.015-1.623,1.8,1.8,0,0,1,.034-.348v-11.992a5.025,5.025,0,0,1,1.473-3.552l2.134-2.135a5.026,5.026,0,0,1,3.54-1.471h9.134a5.034,5.034,0,0,1,5.022,5.02v11.261a5.034,5.034,0,0,1-5.02,5.021H-940.45a1.744,1.744,0,0,1-.247.017A1.816,1.816,0,0,1-941.52-1536.229Zm.823-.8a.788.788,0,0,0,.138-.012.806.806,0,0,1-.138.012Zm-.023,0h0Zm-.023,0h0Zm-.022,0h0Zm-.021,0a.8.8,0,0,1-.281-.085l-.006,0A.8.8,0,0,0-940.785-1537.036Zm.233-.008h0Zm14.333,0a4.026,4.026,0,0,0,4.022-4.021v0a4.026,4.026,0,0,1-4.022,4.021h0Zm-14.853-.076-.01-.005a.806.806,0,0,1-.44-.58A.806.806,0,0,0-941.072-1537.124Zm-.45-.587,0-.017Zm0-.019c0-.012,0-.025,0-.037C-941.529-1537.755-941.528-1537.742-941.526-1537.73Zm-.005-.042v0Zm0-.018c0-.006,0-.012,0-.019S-941.533-1537.8-941.533-1537.79Zm0-.023s0-.01,0-.015S-941.534-1537.818-941.534-1537.813Zm0-.038c0,.006,0,.012,0,.019s0-.012,0-.019Zm0,0c0-.006,0-.012,0-.018S-941.535-1537.858-941.535-1537.852Zm0-.026s0-.006,0-.009S-941.534-1537.88-941.535-1537.877Zm1.642-.779v-10.455h3.217a2.413,2.413,0,0,0,2.413-2.413v-3.218h8.042a2.413,2.413,0,0,1,2.413,2.413,2.413,2.413,0,0,0-2.413-2.413h-8.042v3.218a2.413,2.413,0,0,1-2.413,2.413h-3.217Zm1-1h12.673a1.414,1.414,0,0,0,1.413-1.413v-11.26a1.414,1.414,0,0,0-1.413-1.413h-7.042v2.218a3.417,3.417,0,0,1-3.413,3.413h-2.218Zm1.843-14.379-2.139,2.137a2.435,2.435,0,0,0-.643,1.177,2.435,2.435,0,0,1,.643-1.177l2.139-2.137a2.389,2.389,0,0,1,1.179-.644A2.389,2.389,0,0,0-937.049-1554.035Zm-.9,2.315h1.08v-1.08Z" transform="translate(941.535 1556.33)" fill="#4adda4"/>
      </g>
    </g>
  </g>
</svg>
