<svg xmlns="http://www.w3.org/2000/svg" width="73.894" height="72.483" viewBox="0 0 73.894 72.483">
  <g id="stethoscope-3539" transform="translate(126.536 124.097)">
    <g id="Grupo_8" data-name="Grupo 8" transform="translate(-126.036 -123.597)">
      <path id="Caminho_12" data-name="Caminho 12" d="M79.944,148.009A15.229,15.229,0,0,1,64.732,132.8v-2.568a1.215,1.215,0,0,1,2.43,0V132.8a12.782,12.782,0,0,0,25.563,0v-16.35a9.781,9.781,0,1,1,19.562,0v4.27a1.215,1.215,0,1,1-2.43,0v-4.27a7.351,7.351,0,1,0-14.7,0V132.8A15.229,15.229,0,0,1,79.944,148.009Z" transform="translate(-46.013 -76.525)" fill="#4adda4"/>
      <path id="Path_12_-_Outline" data-name="Path 12 - Outline" d="M79.944,148.159A15.379,15.379,0,0,1,64.582,132.8v-2.568a1.365,1.365,0,0,1,2.73,0V132.8a12.632,12.632,0,0,0,25.263,0v-16.35a9.931,9.931,0,1,1,19.862,0v4.27a1.365,1.365,0,1,1-2.73,0v-4.27a7.2,7.2,0,1,0-14.4,0V132.8A15.379,15.379,0,0,1,79.944,148.159Zm-14-18.995a1.066,1.066,0,0,0-1.065,1.065V132.8A15.061,15.061,0,0,0,95,132.8v-16.35a7.5,7.5,0,1,1,15,0v4.27a1.065,1.065,0,1,0,2.13,0v-4.27a9.631,9.631,0,1,0-19.262,0V132.8a12.932,12.932,0,0,1-25.863,0v-2.568A1.066,1.066,0,0,0,65.947,129.164Z" transform="translate(-46.013 -76.525)" fill="#4adda4"/>
      <path id="Path_12_-_Outline-2" data-name="Path 12 - Outline" d="M79.944,148.359A15.579,15.579,0,0,1,64.382,132.8v-2.568a1.565,1.565,0,0,1,3.13,0V132.8a12.432,12.432,0,0,0,24.863,0v-16.35a10.131,10.131,0,1,1,20.262,0v4.27a1.565,1.565,0,1,1-3.13,0v-4.27a7,7,0,1,0-14,0V132.8A15.579,15.579,0,0,1,79.944,148.359Zm-14-18.995a.866.866,0,0,0-.865.865V132.8a14.861,14.861,0,0,0,29.723,0v-16.35a7.7,7.7,0,1,1,15.4,0v4.27a.865.865,0,1,0,1.73,0v-4.27a9.431,9.431,0,1,0-18.862,0V132.8a13.132,13.132,0,0,1-26.263,0v-2.568A.866.866,0,0,0,65.947,129.364Z" transform="translate(-46.013 -76.525)" fill="#4adda4"/>
      <path id="Path_12_-_Outline_-_Outline" data-name="Path 12 - Outline - Outline" d="M79.944,148.509A15.729,15.729,0,0,1,64.232,132.8v-2.568a1.715,1.715,0,0,1,3.43,0V132.8a12.282,12.282,0,0,0,24.563,0v-16.35a10.281,10.281,0,1,1,20.562,0v4.27a1.715,1.715,0,1,1-3.43,0v-4.27a6.851,6.851,0,1,0-13.7,0V132.8A15.729,15.729,0,0,1,79.944,148.509Zm-14-19.695a1.417,1.417,0,0,0-1.415,1.415V132.8a15.411,15.411,0,0,0,30.823,0v-16.35a7.151,7.151,0,1,1,14.3,0v4.27a1.415,1.415,0,1,0,2.83,0v-4.27a9.981,9.981,0,1,0-19.962,0V132.8a12.582,12.582,0,0,1-25.163,0v-2.568A1.417,1.417,0,0,0,65.947,128.814Zm14,18.995A15.028,15.028,0,0,1,64.932,132.8v-2.568a1.015,1.015,0,0,1,2.03,0V132.8a12.982,12.982,0,0,0,25.963,0v-16.35a9.581,9.581,0,1,1,19.162,0v4.27a1.015,1.015,0,1,1-2.03,0v-4.27a7.551,7.551,0,1,0-15.1,0V132.8A15.028,15.028,0,0,1,79.944,147.809Zm-14-18.295a.716.716,0,0,0-.715.715V132.8a14.711,14.711,0,0,0,29.423,0v-16.35a7.851,7.851,0,1,1,15.7,0v4.27a.715.715,0,1,0,1.43,0v-4.27a9.281,9.281,0,1,0-18.562,0V132.8a13.282,13.282,0,0,1-26.563,0v-2.568A.716.716,0,0,0,65.947,129.514Z" transform="translate(-46.013 -76.525)" fill="#4adda4"/>
      <path id="Caminho_13" data-name="Caminho 13" d="M108.081,35.01h0a1.214,1.214,0,0,1-1.211-1.219l.077-24.317a4.613,4.613,0,0,0-4.608-4.6,1.215,1.215,0,0,1,0-2.43,7.045,7.045,0,0,1,7.038,7.038L109.3,33.8A1.215,1.215,0,0,1,108.081,35.01Z" transform="translate(-71.878 -2.439)" fill="#4adda4"/>
      <path id="Path_13_-_Outline" data-name="Path 13 - Outline" d="M108.081,35.16h0a1.364,1.364,0,0,1-1.361-1.37l.077-24.317a4.461,4.461,0,0,0-4.458-4.454,1.365,1.365,0,0,1,0-2.73,7.2,7.2,0,0,1,7.188,7.188L109.446,33.8A1.368,1.368,0,0,1,108.081,35.16Zm-5.746-32.57a1.065,1.065,0,0,0,0,2.13,4.762,4.762,0,0,1,4.758,4.754l-.077,24.317a1.064,1.064,0,0,0,1.061,1.068l0,.15v-.15a1.067,1.067,0,0,0,1.065-1.061l.077-24.321A6.9,6.9,0,0,0,102.335,2.589Z" transform="translate(-71.878 -2.439)" fill="#4adda4"/>
      <path id="Path_13_-_Outline-2" data-name="Path 13 - Outline" d="M108.081,35.36h0a1.564,1.564,0,0,1-1.561-1.57l.077-24.317a4.261,4.261,0,0,0-4.258-4.253,1.565,1.565,0,0,1,0-3.13,7.4,7.4,0,0,1,7.388,7.388L109.646,33.8A1.568,1.568,0,0,1,108.081,35.36Zm-5.746-32.57a.865.865,0,0,0,0,1.73,4.962,4.962,0,0,1,4.958,4.954l-.077,24.318a.864.864,0,0,0,.862.868l0,.35v-.35a.867.867,0,0,0,.865-.862l.077-24.321A6.7,6.7,0,0,0,102.335,2.789Z" transform="translate(-71.878 -2.439)" fill="#4adda4"/>
      <path id="Path_13_-_Outline_-_Outline" data-name="Path 13 - Outline - Outline" d="M108.081,35.51h0a1.714,1.714,0,0,1-1.711-1.721l.077-24.317a4.11,4.11,0,0,0-4.108-4.1,1.715,1.715,0,0,1,0-3.43,7.546,7.546,0,0,1,7.538,7.538L109.8,33.8A1.718,1.718,0,0,1,108.081,35.51Zm-5.746-33.27a1.415,1.415,0,0,0,0,2.83,4.411,4.411,0,0,1,4.408,4.4l-.077,24.317a1.414,1.414,0,0,0,1.411,1.42l0,.15v-.15A1.418,1.418,0,0,0,109.5,33.8l.077-24.322A7.246,7.246,0,0,0,102.335,2.239Zm5.6,32.771,0-.212a1.015,1.015,0,0,1-.863-1.007l.077-24.318a4.811,4.811,0,0,0-4.808-4.8,1.015,1.015,0,1,1,0-2.03,6.845,6.845,0,0,1,6.838,6.837L109.1,33.8a1.018,1.018,0,0,1-.865,1v.211Zm.147-.5h0a.716.716,0,0,0,.715-.713l.077-24.321a6.545,6.545,0,0,0-6.538-6.537.715.715,0,0,0,0,1.43,5.112,5.112,0,0,1,5.108,5.1l-.077,24.318a.714.714,0,0,0,.712.717Z" transform="translate(-71.878 -2.439)" fill="#4adda4"/>
      <path id="Caminho_14" data-name="Caminho 14" d="M9.5,35.01A1.214,1.214,0,0,1,8.289,33.8L8.212,9.482a7.047,7.047,0,0,1,7.038-7.042,1.215,1.215,0,1,1,0,2.43,4.614,4.614,0,0,0-4.608,4.609l.077,24.313A1.215,1.215,0,0,1,9.508,35.01Z" transform="translate(-5.837 -2.439)" fill="#4adda4"/>
      <path id="Path_14_-_Outline" data-name="Path 14 - Outline" d="M9.508,35.16h0v-.3a1.067,1.067,0,0,0,1.061-1.069L10.492,9.478a4.764,4.764,0,0,1,4.758-4.759,1.065,1.065,0,0,0,0-2.13A6.9,6.9,0,0,0,8.362,9.482L8.439,33.8A1.066,1.066,0,0,0,9.5,34.86l0,.15,0,.15A1.367,1.367,0,0,1,8.139,33.8L8.062,9.482a7.2,7.2,0,0,1,7.188-7.193,1.365,1.365,0,1,1,0,2.73,4.463,4.463,0,0,0-4.458,4.459l.077,24.312A1.368,1.368,0,0,1,9.508,35.16Z" transform="translate(-5.837 -2.439)" fill="#4adda4"/>
      <path id="Path_14_-_Outline-2" data-name="Path 14 - Outline" d="M9.509,35.36h0l0-.35,0,.35A1.567,1.567,0,0,1,7.939,33.8L7.862,9.483a7.4,7.4,0,0,1,7.388-7.394,1.565,1.565,0,0,1,0,3.13,4.263,4.263,0,0,0-4.258,4.259l.077,24.312A1.568,1.568,0,0,1,9.509,35.36Zm5.74-32.57A6.7,6.7,0,0,0,8.562,9.482L8.639,33.8a.866.866,0,0,0,.865.862h0a.867.867,0,0,0,.862-.868L10.292,9.479a4.964,4.964,0,0,1,4.958-4.96.865.865,0,1,0,0-1.73Z" transform="translate(-5.837 -2.439)" fill="#4adda4"/>
      <path id="Path_14_-_Outline_-_Outline" data-name="Path 14 - Outline - Outline" d="M9.51,35.51H9.355V35.5a1.718,1.718,0,0,1-1.566-1.7L7.712,9.483a7.549,7.549,0,0,1,7.538-7.544,1.715,1.715,0,0,1,0,3.43,4.113,4.113,0,0,0-4.108,4.109l.077,24.311A1.719,1.719,0,0,1,9.652,35.5v.006H9.51Zm5.74-33.27A7.249,7.249,0,0,0,8.012,9.483L8.089,33.8a1.417,1.417,0,0,0,1.267,1.4l0-.194.3,0V35.2a1.418,1.418,0,0,0,1.262-1.411L10.842,9.478a4.413,4.413,0,0,1,4.408-4.409,1.415,1.415,0,1,0,0-2.83ZM9.508,34.81A1.017,1.017,0,0,1,8.489,33.8L8.412,9.482a6.848,6.848,0,0,1,6.838-6.843,1.015,1.015,0,1,1,0,2.03,4.814,4.814,0,0,0-4.808,4.81l.077,24.312A1.017,1.017,0,0,1,9.508,34.81Zm5.742-31.87A6.547,6.547,0,0,0,8.712,9.482L8.789,33.8a.715.715,0,1,0,1.43-.005L10.142,9.479a5.115,5.115,0,0,1,5.108-5.11.715.715,0,1,0,0-1.43Z" transform="translate(-5.837 -2.439)" fill="#4adda4"/>
      <path id="Caminho_15" data-name="Caminho 15" d="M23.679,131.444h-7.49a1.215,1.215,0,0,1-1.215-1.215v-3.037A20,20,0,0,1,0,107.881a1.214,1.214,0,0,1,1.215-1.215H6.5a1.214,1.214,0,0,1,1.215,1.215,12.218,12.218,0,1,0,24.437,0,1.214,1.214,0,0,1,1.215-1.215h5.286a1.215,1.215,0,0,1,1.215,1.215,20,20,0,0,1-14.974,19.311v3.037A1.215,1.215,0,0,1,23.679,131.444Zm-6.275-2.43h5.06v-2.789a1.215,1.215,0,0,1,.974-1.191A17.557,17.557,0,0,0,37.4,109.1H34.534a14.65,14.65,0,0,1-29.2,0H2.472a17.557,17.557,0,0,0,13.959,15.939,1.216,1.216,0,0,1,.974,1.191Z" transform="translate(0 -76.525)" fill="#4adda4"/>
      <path id="Path_15_-_Outline" data-name="Path 15 - Outline" d="M23.679,131.594h-7.49a1.366,1.366,0,0,1-1.365-1.365v-2.921a19.862,19.862,0,0,1-5.957-2.672,20.249,20.249,0,0,1-7.9-10.161,19.923,19.923,0,0,1-1.12-6.594,1.366,1.366,0,0,1,1.365-1.365H6.5a1.366,1.366,0,0,1,1.365,1.365,12.068,12.068,0,1,0,24.137,0,1.366,1.366,0,0,1,1.365-1.365h5.286a1.366,1.366,0,0,1,1.365,1.365,19.923,19.923,0,0,1-1.12,6.594A20.249,20.249,0,0,1,31,124.636a19.862,19.862,0,0,1-5.957,2.672v2.921A1.366,1.366,0,0,1,23.679,131.594ZM1.215,106.816A1.066,1.066,0,0,0,.15,107.881a19.77,19.77,0,0,0,14.861,19.166l.113.029v3.154a1.066,1.066,0,0,0,1.065,1.065h7.49a1.066,1.066,0,0,0,1.065-1.065v-3.154l.113-.029a19.77,19.77,0,0,0,14.861-19.166,1.066,1.066,0,0,0-1.065-1.065H33.368a1.066,1.066,0,0,0-1.065,1.065,12.368,12.368,0,1,1-24.737,0A1.066,1.066,0,0,0,6.5,106.816Zm21.4,22.349h-5.36v-2.939a1.069,1.069,0,0,0-.853-1.044A17.7,17.7,0,0,1,2.322,109.106l-.011-.16H5.474l.011.138a14.5,14.5,0,0,0,28.9,0l.011-.138h3.163l-.011.16a17.7,17.7,0,0,1-14.079,16.075,1.068,1.068,0,0,0-.853,1.044Zm-5.06-.3h4.76v-2.639a1.369,1.369,0,0,1,1.094-1.338,17.4,17.4,0,0,0,13.828-15.642H34.672a14.8,14.8,0,0,1-29.473,0H2.634a17.4,17.4,0,0,0,13.828,15.642,1.37,1.37,0,0,1,1.094,1.338Z" transform="translate(0 -76.525)" fill="#4adda4"/>
      <path id="Path_15_-_Outline-2" data-name="Path 15 - Outline" d="M23.679,131.794h-7.49a1.567,1.567,0,0,1-1.565-1.565v-2.768A20.061,20.061,0,0,1,8.756,124.8,20.449,20.449,0,0,1,.781,114.541a20.123,20.123,0,0,1-1.131-6.66,1.567,1.567,0,0,1,1.565-1.565H6.5a1.567,1.567,0,0,1,1.565,1.565,11.868,11.868,0,1,0,23.737,0,1.567,1.567,0,0,1,1.565-1.565h5.286a1.567,1.567,0,0,1,1.565,1.565,20.123,20.123,0,0,1-1.131,6.66A20.449,20.449,0,0,1,31.112,124.8a20.061,20.061,0,0,1-5.868,2.659v2.768A1.567,1.567,0,0,1,23.679,131.794ZM1.215,107.016a.866.866,0,0,0-.865.865,19.57,19.57,0,0,0,14.711,18.972l.263.067v3.309a.866.866,0,0,0,.865.865h7.49a.866.866,0,0,0,.865-.865V126.92l.263-.067a19.57,19.57,0,0,0,14.711-18.972.866.866,0,0,0-.865-.865H33.368a.866.866,0,0,0-.865.865,12.568,12.568,0,1,1-25.137,0,.866.866,0,0,0-.865-.865Zm21.6,22.349h-5.76v-3.139a.868.868,0,0,0-.693-.848A17.9,17.9,0,0,1,2.123,109.12l-.026-.374H5.658l.027.321a14.3,14.3,0,0,0,28.5,0l.027-.321h3.562l-.026.374a17.9,17.9,0,0,1-14.239,16.257.868.868,0,0,0-.693.848Zm-5.06-.7h4.36v-2.439a1.57,1.57,0,0,1,1.254-1.534,17.2,17.2,0,0,0,13.649-15.246H34.853a15,15,0,0,1-29.836,0H2.851A17.2,17.2,0,0,0,16.5,124.691a1.57,1.57,0,0,1,1.254,1.534Z" transform="translate(0 -76.525)" fill="#4adda4"/>
      <path id="Path_15_-_Outline_-_Outline" data-name="Path 15 - Outline - Outline" d="M23.679,131.944h-7.49a1.717,1.717,0,0,1-1.715-1.715v-2.653a20.218,20.218,0,0,1-5.8-2.648A20.6,20.6,0,0,1,.639,114.59,20.273,20.273,0,0,1-.5,107.881a1.717,1.717,0,0,1,1.715-1.715H6.5a1.717,1.717,0,0,1,1.715,1.715,11.718,11.718,0,1,0,23.437,0,1.717,1.717,0,0,1,1.715-1.715h5.286a1.717,1.717,0,0,1,1.715,1.715,20.272,20.272,0,0,1-1.139,6.71A20.6,20.6,0,0,1,31.2,124.928a20.219,20.219,0,0,1-5.8,2.648v2.653A1.717,1.717,0,0,1,23.679,131.944ZM1.215,106.466A1.417,1.417,0,0,0-.2,107.881a19.973,19.973,0,0,0,1.123,6.611,20.3,20.3,0,0,0,7.916,10.186,19.919,19.919,0,0,0,5.824,2.639l.111.03v2.882a1.417,1.417,0,0,0,1.415,1.415h7.49a1.417,1.417,0,0,0,1.415-1.415v-2.882l.111-.03a19.919,19.919,0,0,0,5.824-2.639,20.3,20.3,0,0,0,7.916-10.186,19.973,19.973,0,0,0,1.123-6.611,1.417,1.417,0,0,0-1.415-1.415H33.368a1.417,1.417,0,0,0-1.415,1.415,12.018,12.018,0,1,1-24.037,0A1.417,1.417,0,0,0,6.5,106.466Zm22.464,24.778h-7.49a1.016,1.016,0,0,1-1.015-1.015v-3.192l-.15-.039A19.72,19.72,0,0,1,.2,107.881a1.016,1.016,0,0,1,1.015-1.015H6.5a1.016,1.016,0,0,1,1.015,1.015,12.418,12.418,0,1,0,24.837,0,1.016,1.016,0,0,1,1.015-1.015h5.286a1.016,1.016,0,0,1,1.015,1.015A19.72,19.72,0,0,1,24.845,127l-.15.039v3.192A1.016,1.016,0,0,1,23.679,131.244ZM1.215,107.166a.716.716,0,0,0-.715.715,19.42,19.42,0,0,0,14.6,18.827l.376.1v3.425a.716.716,0,0,0,.715.715h7.49a.716.716,0,0,0,.715-.715V126.8l.376-.1a19.42,19.42,0,0,0,14.6-18.827.716.716,0,0,0-.715-.715H33.368a.716.716,0,0,0-.715.715,12.718,12.718,0,1,1-25.437,0,.716.716,0,0,0-.715-.715Zm21.75,22.349H16.9v-3.289a.718.718,0,0,0-.573-.7A18.049,18.049,0,0,1,1.973,109.13l-.037-.535H5.8l.038.459a14.15,14.15,0,0,0,28.2,0l.038-.459h3.86l-.037.535a18.049,18.049,0,0,1-14.359,16.394.717.717,0,0,0-.573.7Zm-5.76-.3h5.46v-2.989a1.018,1.018,0,0,1,.813-.995A17.748,17.748,0,0,0,37.6,109.109l.015-.214H34.35l-.015.184a14.45,14.45,0,0,1-28.8,0L5.52,108.9H2.257l.015.214A17.748,17.748,0,0,0,16.391,125.23a1.019,1.019,0,0,1,.813.995Zm5.061-.4H17.6v-2.589a1.42,1.42,0,0,0-1.134-1.387,17.122,17.122,0,0,1-5.2-1.978,17.351,17.351,0,0,1-8.567-13.4l-.015-.164H5.152l.014.134a14.851,14.851,0,0,0,29.537,0l.014-.134h2.465l-.015.164a17.207,17.207,0,0,1-1.4,5.383A17.421,17.421,0,0,1,28.6,122.86a17.121,17.121,0,0,1-5.2,1.978,1.419,1.419,0,0,0-1.134,1.387Zm-4.361-.3h4.06v-2.289a1.72,1.72,0,0,1,1.374-1.681A17.111,17.111,0,0,0,36.853,109.6H34.987a15.151,15.151,0,0,1-30.1,0H3.017a17.111,17.111,0,0,0,13.514,14.949,1.721,1.721,0,0,1,1.374,1.681Z" transform="translate(0 -76.525)" fill="#4adda4"/>
      <path id="Caminho_16" data-name="Caminho 16" d="M205.724,166.725a7.835,7.835,0,1,1,7.835-7.835A7.843,7.843,0,0,1,205.724,166.725Zm0-13.238a5.4,5.4,0,1,0,5.4,5.4A5.41,5.41,0,0,0,205.724,153.486Z" transform="translate(-140.664 -108.079)" fill="#4adda4"/>
      <path id="Path_16_-_Outline" data-name="Path 16 - Outline" d="M205.724,166.875a7.985,7.985,0,1,1,7.985-7.985A7.993,7.993,0,0,1,205.724,166.875Zm0-15.669a7.685,7.685,0,1,0,7.685,7.685A7.693,7.693,0,0,0,205.724,151.206Zm0,13.24a5.555,5.555,0,1,1,5.555-5.555A5.561,5.561,0,0,1,205.724,164.446Zm0-10.809a5.255,5.255,0,1,0,5.255,5.255A5.26,5.26,0,0,0,205.724,153.636Z" transform="translate(-140.664 -108.079)" fill="#4adda4"/>
      <path id="Path_16_-_Outline-2" data-name="Path 16 - Outline" d="M205.724,167.075a8.185,8.185,0,1,1,8.185-8.185A8.193,8.193,0,0,1,205.724,167.075Zm0-15.669a7.485,7.485,0,1,0,7.485,7.485A7.493,7.493,0,0,0,205.724,151.406Zm0,13.24a5.755,5.755,0,1,1,5.755-5.755A5.761,5.761,0,0,1,205.724,164.646Zm0-10.809a5.055,5.055,0,1,0,5.055,5.055A5.06,5.06,0,0,0,205.724,153.836Z" transform="translate(-140.664 -108.079)" fill="#4adda4"/>
      <path id="Path_16_-_Outline_-_Outline" data-name="Path 16 - Outline - Outline" d="M205.724,167.225a8.335,8.335,0,1,1,8.335-8.335A8.344,8.344,0,0,1,205.724,167.225Zm0-16.369a8.035,8.035,0,1,0,8.035,8.035A8.043,8.043,0,0,0,205.724,150.856Zm0,15.669a7.635,7.635,0,1,1,7.635-7.635A7.643,7.643,0,0,1,205.724,166.525Zm0-14.969a7.335,7.335,0,1,0,7.335,7.335A7.342,7.342,0,0,0,205.724,151.556Zm0,13.24a5.9,5.9,0,1,1,5.9-5.9A5.911,5.911,0,0,1,205.724,164.8Zm0-11.509a5.6,5.6,0,1,0,5.6,5.6A5.611,5.611,0,0,0,205.724,153.286Zm0,10.809a5.2,5.2,0,1,1,5.2-5.2A5.21,5.21,0,0,1,205.724,164.1Zm0-10.109a4.9,4.9,0,1,0,4.9,4.9A4.91,4.91,0,0,0,205.724,153.986Z" transform="translate(-140.664 -108.079)" fill="#4adda4"/>
      <circle id="Elipse_5" data-name="Elipse 5" cx="2.687" cy="2.687" r="2.687" transform="translate(62.373 48.126)" fill="#4adda4"/>
      <path id="Ellipse_5_-_Outline" data-name="Ellipse 5 - Outline" d="M2.687-.15A2.837,2.837,0,1,1-.15,2.687,2.84,2.84,0,0,1,2.687-.15Zm0,5.373A2.537,2.537,0,1,0,.15,2.687,2.539,2.539,0,0,0,2.687,5.223Z" transform="translate(62.373 48.126)" fill="#4adda4"/>
      <path id="Ellipse_5_-_Outline-2" data-name="Ellipse 5 - Outline" d="M2.687-.35A3.037,3.037,0,1,1-.35,2.687,3.04,3.04,0,0,1,2.687-.35Zm0,5.373A2.337,2.337,0,1,0,.35,2.687,2.339,2.339,0,0,0,2.687,5.023Z" transform="translate(62.373 48.126)" fill="#4adda4"/>
      <path id="Ellipse_5_-_Outline_-_Outline" data-name="Ellipse 5 - Outline - Outline" d="M2.687-.5A3.187,3.187,0,1,1-.5,2.687,3.19,3.19,0,0,1,2.687-.5Zm0,6.073A2.887,2.887,0,1,0-.2,2.687,2.89,2.89,0,0,0,2.687,5.573ZM2.687.2A2.487,2.487,0,1,1,.2,2.687,2.489,2.489,0,0,1,2.687.2Zm0,4.673A2.187,2.187,0,1,0,.5,2.687,2.189,2.189,0,0,0,2.687,4.873Z" transform="translate(62.373 48.126)" fill="#4adda4"/>
    </g>
  </g>
</svg>
