<svg xmlns="http://www.w3.org/2000/svg" width="52.402" height="69.654" viewBox="0 0 52.402 69.654">
  <g id="chart-1482" transform="translate(94.601 126.682)">
    <g id="Grupo_68" data-name="Grupo 68" transform="translate(-94.684 -126.036)">
      <path id="União_7" data-name="União 7" d="M-1285.372-2328.946a4.091,4.091,0,0,1-4.077-4.1V-2394.5a4.091,4.091,0,0,1,4.077-4.1h32.19a4.036,4.036,0,0,1,2.882,1.2l12.059,12.115a4.075,4.075,0,0,1,1.195,2.9v49.346a4.091,4.091,0,0,1-4.077,4.1Zm-.533-65.558v61.462a.535.535,0,0,0,.533.536h44.248a.535.535,0,0,0,.533-.536v-48.525h-9.538a3.885,3.885,0,0,1-3.871-3.89v-9.582h-31.373A.534.534,0,0,0-1285.9-2394.5Zm35.45,9.047a.328.328,0,0,0,.327.329h7.031l-7.357-7.393Z" transform="translate(1289.532 2397.954)" fill="#4adda4"/>
      <path id="Caminho_91" data-name="Caminho 91" d="M90.349,200.869H50.411a1.156,1.156,0,0,1,0-2.312H90.349a1.156,1.156,0,0,1,0,2.312Z" transform="translate(-44.329 -143.927)" fill="#4adda4"/>
      <path id="Path_91_-_Outline" data-name="Path 91 - Outline" d="M90.349,201.519H50.411a1.806,1.806,0,0,1,0-3.612H90.349a1.806,1.806,0,1,1,0,3.612Zm-39.938-2.312a.506.506,0,0,0,0,1.012H90.349a.506.506,0,0,0,0-1.012Z" transform="translate(-44.329 -143.927)" fill="#4adda4"/>
      <path id="Caminho_92" data-name="Caminho 92" d="M123.839,155.509a1.156,1.156,0,0,1-1.156-1.156V143.969a1.156,1.156,0,1,1,2.312,0v10.385A1.156,1.156,0,0,1,123.839,155.509Z" transform="translate(-97.555 -103.52)" fill="#4adda4"/>
      <path id="Path_92_-_Outline" data-name="Path 92 - Outline" d="M123.839,156.159a1.808,1.808,0,0,1-1.806-1.806V143.969a1.806,1.806,0,1,1,3.612,0v10.385A1.808,1.808,0,0,1,123.839,156.159Zm0-12.7a.506.506,0,0,0-.506.506v10.385a.506.506,0,1,0,1.012,0V143.969A.506.506,0,0,0,123.839,143.463Z" transform="translate(-97.555 -103.52)" fill="#4adda4"/>
      <path id="Caminho_93" data-name="Caminho 93" d="M95.831,142.041a1.156,1.156,0,0,1-1.156-1.156v-15.5a1.156,1.156,0,0,1,2.312,0v15.5A1.156,1.156,0,0,1,95.831,142.041Z" transform="translate(-77.253 -90.052)" fill="#4adda4"/>
      <path id="Path_93_-_Outline" data-name="Path 93 - Outline" d="M95.831,142.691a1.808,1.808,0,0,1-1.806-1.806v-15.5a1.806,1.806,0,0,1,3.612,0v15.5A1.808,1.808,0,0,1,95.831,142.691Zm0-17.808a.506.506,0,0,0-.506.506v15.5a.506.506,0,1,0,1.012,0v-15.5A.506.506,0,0,0,95.831,124.882Z" transform="translate(-77.253 -90.052)" fill="#4adda4"/>
      <path id="Caminho_94" data-name="Caminho 94" d="M67.823,169.189a1.156,1.156,0,0,1-1.156-1.156v-5.192a1.156,1.156,0,0,1,2.312,0v5.192A1.156,1.156,0,0,1,67.823,169.189Z" transform="translate(-56.951 -117.2)" fill="#4adda4"/>
      <path id="Path_94_-_Outline" data-name="Path 94 - Outline" d="M67.823,169.839a1.808,1.808,0,0,1-1.806-1.806v-5.192a1.806,1.806,0,0,1,3.612,0v5.192A1.808,1.808,0,0,1,67.823,169.839Zm0-7.5a.506.506,0,0,0-.506.506v5.192a.506.506,0,1,0,1.012,0v-5.192A.506.506,0,0,0,67.823,162.335Z" transform="translate(-56.951 -117.2)" fill="#4adda4"/>
      <path id="Caminho_95" data-name="Caminho 95" d="M151.847,114.684a1.156,1.156,0,0,1-1.156-1.156V87.647a1.156,1.156,0,1,1,2.312,0v25.88A1.156,1.156,0,0,1,151.847,114.684Z" transform="translate(-117.857 -62.695)" fill="#4adda4"/>
      <path id="Path_95_-_Outline" data-name="Path 95 - Outline" d="M151.847,115.334a1.808,1.808,0,0,1-1.806-1.806V87.647a1.806,1.806,0,0,1,3.612,0v25.88A1.808,1.808,0,0,1,151.847,115.334Zm0-28.192a.506.506,0,0,0-.506.506v25.88a.506.506,0,1,0,1.012,0V87.647A.506.506,0,0,0,151.847,87.142Z" transform="translate(-117.857 -62.695)" fill="#4adda4"/>
      <path id="Caminho_96" data-name="Caminho 96" d="M179.855,142.041a1.156,1.156,0,0,1-1.156-1.156v-15.5a1.156,1.156,0,0,1,2.312,0v15.5A1.156,1.156,0,0,1,179.855,142.041Z" transform="translate(-138.159 -90.052)" fill="#4adda4"/>
      <path id="Path_96_-_Outline" data-name="Path 96 - Outline" d="M179.855,142.691a1.808,1.808,0,0,1-1.806-1.806v-15.5a1.806,1.806,0,1,1,3.612,0v15.5A1.808,1.808,0,0,1,179.855,142.691Zm0-17.808a.506.506,0,0,0-.506.506v15.5a.506.506,0,1,0,1.012,0v-15.5A.506.506,0,0,0,179.855,124.882Z" transform="translate(-138.159 -90.052)" fill="#4adda4"/>
    </g>
  </g>
</svg>
