<svg xmlns="http://www.w3.org/2000/svg" width="49.645" height="70.844" viewBox="0 0 49.645 70.844">
  <path id="União_11" data-name="União 11" d="M-631.931-929.156A3.073,3.073,0,0,1-635-932.225v-12.993a20.619,20.619,0,0,1,4.977-13.408,20.738,20.738,0,0,1,12.3-6.965l.334-.055a13.739,13.739,0,0,1-2.3-1.855,13.554,13.554,0,0,1-2.335-3.116,3.527,3.527,0,0,1-2.172.754h-1.041a6.031,6.031,0,0,1-6.024-6.025V-980.9a6,6,0,0,1,1.49-3.958,6.013,6.013,0,0,1,2.857-1.823,17.3,17.3,0,0,1,5.681-9.278A17.17,17.17,0,0,1-610.178-1000a17.173,17.173,0,0,1,11.057,4.042,17.3,17.3,0,0,1,5.68,9.278,6.016,6.016,0,0,1,2.857,1.823,6,6,0,0,1,1.49,3.958v5.013a6.032,6.032,0,0,1-6.025,6.025h-1.041a3.519,3.519,0,0,1-2.17-.754,13.62,13.62,0,0,1-2.335,3.115,13.668,13.668,0,0,1-2.3,1.855l.334.055a20.733,20.733,0,0,1,12.3,6.965,20.615,20.615,0,0,1,4.977,13.406v13a3.072,3.072,0,0,1-3.068,3.068Zm.947-16.063v12.048h41.613v-12.047a16.888,16.888,0,0,0-12.271-16.048l-8.536,9.856-8.536-9.857A16.89,16.89,0,0,0-630.985-945.22Zm20.806-12.322,6.8-7.853a13.333,13.333,0,0,1-6.8,1.849,13.336,13.336,0,0,1-6.8-1.85Zm-9.452-23.976v4.505a9.464,9.464,0,0,0,9.453,9.453,9.464,9.464,0,0,0,9.454-9.453v-4.505a9.465,9.465,0,0,0-9.454-9.454A9.465,9.465,0,0,0-619.63-981.518Zm23.594,8.022h.916a2.394,2.394,0,0,0,2.392-2.39V-980.9a2.394,2.394,0,0,0-2.392-2.39h-.916Zm-31.593-7.4v5.013a2.393,2.393,0,0,0,2.391,2.39h.917v-9.794h-.917A2.394,2.394,0,0,0-627.629-980.9Zm26.964-10.13a13.43,13.43,0,0,1,2.971,4.459,3.507,3.507,0,0,1,.477-.191,13.574,13.574,0,0,0-12.961-9.606,13.575,13.575,0,0,0-12.961,9.606,3.58,3.58,0,0,1,.477.191,13.428,13.428,0,0,1,2.972-4.459,13.373,13.373,0,0,1,9.512-3.956A13.373,13.373,0,0,1-600.664-991.03Z" transform="translate(635 1000)" fill="#4adda4"/>
</svg>
