<svg xmlns="http://www.w3.org/2000/svg" width="48.615" height="71.191" viewBox="0 0 48.615 71.191">
  <g id="doctor-3552_1_" data-name="doctor-3552 (1)" transform="translate(137.015 126.436)">
    <g id="Grupo_67" data-name="Grupo 67" transform="translate(-85.615 -126.036)">
      <path id="União_6" data-name="União 6" d="M-635.549-2326.391a3.545,3.545,0,0,1-3.618-3.457V-2348.6a8,8,0,0,1,6.894-7.72l6.138-1.033a3.162,3.162,0,0,0,2.789-2.982v-.009l.023-.971a16.254,16.254,0,0,1-4.774-10.191v-.008l-.622-9.66a1.57,1.57,0,0,1-.7-1.188c-.4-5.161.554-8.906,2.911-11.453,3.091-3.338,7.929-3.766,11.8-3.766,5.448,0,9.262,1.34,11.66,4.1,2.538,2.919,3.367,7.233,2.533,13.187a1.576,1.576,0,0,1-.493.933l-.513,7.837a16.26,16.26,0,0,1-1.4,5.389,16.2,16.2,0,0,1-1.463,2.568,16.3,16.3,0,0,1-1.9,2.258c-.035.034-.07.065-.1.094l.019.857a3.178,3.178,0,0,0,2.79,3.009l6.137,1.033a8,8,0,0,1,6.893,7.72v18.753a3.544,3.544,0,0,1-3.617,3.457Zm34.264-3.146c.15,0,.293,0,.471,0,.157,0,.328,0,.526-.005h6.119c.266,0,.471-.167.471-.31V-2348.6a4.867,4.867,0,0,0-4.27-4.617l-1.922-.324v9.436a2.919,2.919,0,0,1,1.363,2.466,2.94,2.94,0,0,1-2.936,2.937,2.94,2.94,0,0,1-2.937-2.937,2.922,2.922,0,0,1,1.364-2.466v-9.966l-1.07-.18a6.948,6.948,0,0,1-.722-.164l-8.459,13.146v11.731h10.66c.257,0,.483,0,.689,0C-601.657-2329.542-601.46-2329.539-601.286-2329.537Zm-30.465-23.682a4.868,4.868,0,0,0-4.271,4.617v18.754c0,.143.206.31.472.31h6.118c.477.007.687,0,.887-.008.14,0,.285-.011.513-.011s.542.006.947.019h10.652v-11.732l-8.459-13.147a6.891,6.891,0,0,1-.721.165l-.719.121v5.3a5.757,5.757,0,0,1,2.866,1.9,5.71,5.71,0,0,1,1.27,3.584v1.726a5.679,5.679,0,0,1-1.537,3.883,1.573,1.573,0,0,1-1.151.5,1.568,1.568,0,0,1-1.073-.422,1.575,1.575,0,0,1-.077-2.223,2.546,2.546,0,0,0,.692-1.738v-1.726a2.565,2.565,0,0,0-2.562-2.562,2.566,2.566,0,0,0-2.563,2.562v1.726a2.547,2.547,0,0,0,.693,1.738,1.56,1.56,0,0,1,.421,1.128,1.561,1.561,0,0,1-.5,1.1,1.568,1.568,0,0,1-1.073.423,1.578,1.578,0,0,1-1.151-.5,5.679,5.679,0,0,1-1.536-3.883v-1.726a5.708,5.708,0,0,1,1.271-3.585,5.746,5.746,0,0,1,2.865-1.9v-4.775Zm9.61-2.735,7.281,11.314,7.281-11.316a6.08,6.08,0,0,1-1.768-2.993,16.108,16.108,0,0,1-2.847,1.364,7.727,7.727,0,0,1-2.621.457,7.7,7.7,0,0,1-2.618-.457,15.984,15.984,0,0,1-2.925-1.412A6.043,6.043,0,0,1-622.14-2355.953Zm4-14.146a1.57,1.57,0,0,1-.383.208.686.686,0,0,1-.105.031l-.012,0-.035.011a1.107,1.107,0,0,1-.19.047,3.093,3.093,0,0,0-2.36,1.641,5.33,5.33,0,0,0-.417,4.055,13.125,13.125,0,0,0,5.279,3.559,4.549,4.549,0,0,0,1.551.271,4.549,4.549,0,0,0,1.551-.271,12.987,12.987,0,0,0,4.121-2.439,1.687,1.687,0,0,1,.253-.226c.054-.049.108-.094.16-.139.081-.069.157-.134.226-.2.1-.1.19-.2.288-.31l.077-.086c.007-.021.015-.044.027-.069a5.785,5.785,0,0,0-.612-4.457,2.436,2.436,0,0,0-2-1.312,1.037,1.037,0,0,1-.213-.038l-.042-.011-.029,0a.838.838,0,0,1-.149-.036,1.454,1.454,0,0,1-.3-.152l-.006,0a.631.631,0,0,1-.1-.056l-.006,0-.021-.014a5.376,5.376,0,0,0-3.261-1.277A5.488,5.488,0,0,0-618.141-2370.1Zm11.362-1a6.491,6.491,0,0,1,.731.967,8.088,8.088,0,0,1,.721,1.516,13.035,13.035,0,0,0,.664-3.152l.029-.441A21.338,21.338,0,0,1-606.778-2371.1Zm-17.6,2.247a7.248,7.248,0,0,1,.4-.845,6.746,6.746,0,0,1,.77-1.105,12.721,12.721,0,0,1-1.748-.8A12.774,12.774,0,0,0-624.373-2368.85Zm-.842-6.834c1.576,1.524,3.213,2.1,5.791,2.649a8.3,8.3,0,0,1,4.578-1.48,8.16,8.16,0,0,1,4.478,1.427,17.861,17.861,0,0,0,6-3.134l.254-3.887c-1.735-1.38-3.547-3.066-4.049-5.668a15.993,15.993,0,0,1-4.3,2.785c-3.911,1.715-10.632,2.183-11.939,2.26-.039,0-.075,0-.11,0h-.006c-.339-.005-.688-.017-1.015-.031Zm21.843-7.926a12.874,12.874,0,0,0-1.184-6.543C-605.757-2386.978-605.105-2385.266-603.373-2383.61Zm-20.83-8.068c-1.543,1.666-2.249,4.2-2.155,7.729.619.038,1.23.062,1.821.072,3.494-.207,8.161-.841,10.8-2a13.937,13.937,0,0,0,6.656-6.4c.058-.132.12-.269.185-.409-1.815-1.176-4.379-1.749-7.817-1.749C-619.51-2394.436-622.436-2393.585-624.2-2391.678Z" transform="translate(587.767 2397.182)" fill="#4adda4"/>
    </g>
  </g>
</svg>
