<svg xmlns="http://www.w3.org/2000/svg" width="48.31" height="70.391" viewBox="0 0 48.31 70.391">
  <path id="União_5" data-name="União 5" d="M454.639-929.87a26.236,26.236,0,0,1-4.622-3.558,20.517,20.517,0,0,1-3.353-4.254,19.942,19.942,0,0,1-2.064-4.954,24.288,24.288,0,0,1-.783-5.64,1.763,1.763,0,0,1,.921-1.6l9.98-5.439a1.773,1.773,0,0,1,.846-.216,1.767,1.767,0,0,1,.845.216l9.98,5.439a1.762,1.762,0,0,1,.922,1.6,24.324,24.324,0,0,1-.784,5.639,19.93,19.93,0,0,1-2.064,4.954,20.5,20.5,0,0,1-3.353,4.253,26.156,26.156,0,0,1-4.622,3.559,1.757,1.757,0,0,1-.923.261A1.763,1.763,0,0,1,454.639-929.87ZM447.4-947.3a17.327,17.327,0,0,0,8.161,13.82,17.333,17.333,0,0,0,8.161-13.82l-8.161-4.448Zm-26.6,17.366a1.8,1.8,0,0,1-1.8-1.8v-6.461a22.265,22.265,0,0,1,4.388-13.325,22.575,22.575,0,0,1,4.915-4.869,22.4,22.4,0,0,1,5.133-2.783,16.241,16.241,0,0,1-5.593-5.317,16.1,16.1,0,0,1-2.554-8.715,9.3,9.3,0,0,1,.272-2.46,4.568,4.568,0,0,1-2.029-3.809,1.665,1.665,0,0,1,1.663-1.664h.488v-1.346a15.947,15.947,0,0,1,.941-5.424,15.668,15.668,0,0,1,2.624-4.63,15.648,15.648,0,0,1,4.01-3.48,15.761,15.761,0,0,1,4.419-1.83,2.7,2.7,0,0,1,2.643-2.154h2.354a2.7,2.7,0,0,1,2.643,2.154,15.788,15.788,0,0,1,4.419,1.83,15.629,15.629,0,0,1,4.009,3.48,15.67,15.67,0,0,1,2.625,4.63,15.967,15.967,0,0,1,.94,5.423v1.346h.488a1.666,1.666,0,0,1,1.663,1.665,4.544,4.544,0,0,1-2.144,3.884,9.5,9.5,0,0,1,.251,2.386,16.087,16.087,0,0,1-2.552,8.711,16.223,16.223,0,0,1-5.589,5.317q.531.2,1.048.432a1.8,1.8,0,0,1,.919,2.371,1.8,1.8,0,0,1-1.645,1.072,1.784,1.784,0,0,1-.725-.153,18.676,18.676,0,0,0-7.6-1.6,18.866,18.866,0,0,0-18.836,18.853v4.663h23a1.8,1.8,0,0,1,1.8,1.8,1.8,1.8,0,0,1-1.8,1.8Zm20.733-30.71A12.585,12.585,0,0,0,453.977-973.2a8.112,8.112,0,0,0-.118-1.484,88.581,88.581,0,0,1-12.361.872A88.759,88.759,0,0,1,429-974.7a8.1,8.1,0,0,0-.121,1.5,12.585,12.585,0,0,0,12.447,12.559h.2Zm-.032-16.5a85.147,85.147,0,0,0,10.583-.664H430.915A84.985,84.985,0,0,0,441.5-977.143Zm-12.487-5.339v1.346h24.974v-1.346A12.569,12.569,0,0,0,450.672-991l-1.325,6.624a1.667,1.667,0,0,1-1.63,1.337,1.732,1.732,0,0,1-.3-.027l-.025-.005a1.666,1.666,0,0,1-1.3-1.958l1.66-8.3a12.4,12.4,0,0,0-2.371-1.046v8.635a2.7,2.7,0,0,1-2.7,2.7H440.32a2.7,2.7,0,0,1-2.7-2.7v-8.635a12.343,12.343,0,0,0-2.371,1.046l1.66,8.3a1.666,1.666,0,0,1-1.3,1.957l-.011,0a1.7,1.7,0,0,1-.323.032,1.667,1.667,0,0,1-1.631-1.338L432.324-991A12.575,12.575,0,0,0,429.011-982.481Zm11.938-3.882h1.1v-10.308h-1.1Zm12.915,47.233-2.908-3.4a1.625,1.625,0,0,1-.389-1.189,1.62,1.62,0,0,1,.565-1.114,1.634,1.634,0,0,1,1.062-.394,1.631,1.631,0,0,1,1.24.571l1.631,1.9,2.594-3.222a1.625,1.625,0,0,1,1.272-.609,1.634,1.634,0,0,1,1.025.363,1.624,1.624,0,0,1,.6,1.1,1.63,1.63,0,0,1-.352,1.2l-3.828,4.752a1.625,1.625,0,0,1-1.233.608H455.1A1.631,1.631,0,0,1,453.864-939.13Z" transform="translate(-419 1000)" fill="#4adda4"/>
</svg>
