<svg xmlns="http://www.w3.org/2000/svg" width="66.768" height="68.554" viewBox="0 0 66.768 68.554">
  <g id="home-location-2486" transform="translate(124.116 127.438)">
    <g id="Grupo_26" data-name="Grupo 26" transform="translate(-124.116 -127.438)">
      <path id="Caminho_51" data-name="Caminho 51" d="M43.984,8.808,33.441-.9a1.883,1.883,0,0,0-2.552,0L2.527,25.221a1.883,1.883,0,1,0,2.552,2.771l1.028-.947V65.269A1.883,1.883,0,0,0,7.99,67.152H39.318a1.883,1.883,0,0,0,0-3.767H9.874V23.575L32.165,3.042l9.268,8.536a1.883,1.883,0,1,0,2.551-2.77Z" transform="translate(-1.92 1.402)" fill="#4adda4"/>
      <path id="Caminho_52" data-name="Caminho 52" d="M136.748,116.976a1.884,1.884,0,0,1-1.458-.692c-4.86-5.945-16.163-20.954-16.163-31.91a17.621,17.621,0,0,1,35.242,0c0,10.956-11.3,25.966-16.163,31.91A1.884,1.884,0,0,1,136.748,116.976Zm0-46.456a13.87,13.87,0,0,0-13.855,13.854c0,6.41,5.146,16.665,13.855,27.71,8.709-11.045,13.855-21.3,13.855-27.71A13.871,13.871,0,0,0,136.748,70.52Z" transform="translate(-87.601 -48.422)" fill="#4adda4"/>
      <path id="Caminho_53" data-name="Caminho 53" d="M163.142,119.13a7.91,7.91,0,1,1,7.91-7.91A7.919,7.919,0,0,1,163.142,119.13Zm0-12.054a4.143,4.143,0,1,0,4.143,4.143A4.148,4.148,0,0,0,163.142,107.076Z" transform="translate(-113.995 -75.146)" fill="#4adda4"/>
    </g>
  </g>
</svg>
