<svg xmlns="http://www.w3.org/2000/svg" width="53.655" height="73.704" viewBox="0 0 53.655 73.704">
  <g id="doctor-294" transform="translate(91.781 126.536)">
    <g id="Grupo_25" data-name="Grupo 25" transform="translate(-91.281 -126.036)">
      <path id="Caminho_47" data-name="Caminho 47" d="M91.92,2.423a11.417,11.417,0,0,1,11.4,11.4v4.959a11.4,11.4,0,0,1-22.81,0V13.828a11.417,11.417,0,0,1,11.4-11.4M91.92,0h0A13.869,13.869,0,0,0,78.092,13.828v4.959A13.869,13.869,0,0,0,91.92,32.616h0a13.869,13.869,0,0,0,13.828-13.828V13.828A13.869,13.869,0,0,0,91.92,0Z" transform="translate(-65.593 0)" fill="#4adda4"/>
      <path id="Path_47_-_Outline" data-name="Path 47 - Outline" d="M91.92-.5a14.369,14.369,0,0,1,14.328,14.328v4.959a14.328,14.328,0,0,1-28.656,0V13.828A14.369,14.369,0,0,1,91.92-.5Zm0,32.616a13.343,13.343,0,0,0,13.328-13.328V13.828a13.328,13.328,0,1,0-26.656,0v4.959A13.343,13.343,0,0,0,91.92,32.116Zm0-30.192a11.918,11.918,0,0,1,11.9,11.9v4.959a11.9,11.9,0,0,1-23.81,0V13.828A11.918,11.918,0,0,1,91.92,1.923Zm0,27.769a10.917,10.917,0,0,0,10.9-10.9V13.828a10.9,10.9,0,0,0-21.81,0v4.959A10.917,10.917,0,0,0,91.92,29.692Z" transform="translate(-65.593 0)" fill="#4adda4"/>
      <path id="Caminho_48" data-name="Caminho 48" d="M70.13,122.538a19.52,19.52,0,0,1,14.857,18.787v14.26H37.179V141.325a19.521,19.521,0,0,1,14.857-18.787l7.215,8.332,1.832,2.116,1.832-2.116,7.215-8.331m-.906-2.655-8.141,9.4-8.141-9.4a21.819,21.819,0,0,0-18.186,21.443v14.3a2.387,2.387,0,0,0,2.38,2.38h47.9a2.387,2.387,0,0,0,2.38-2.38v-14.3a21.819,21.819,0,0,0-18.186-21.442Z" transform="translate(-34.755 -85.306)" fill="#4adda4"/>
      <path id="Path_48_-_Outline" data-name="Path 48 - Outline" d="M52.942,119.383a.5.5,0,0,1,.378.173l7.763,8.964,7.763-8.964a.5.5,0,0,1,.46-.166A22.391,22.391,0,0,1,86.482,133.5a22,22,0,0,1,1.428,7.821v14.3a2.883,2.883,0,0,1-2.88,2.88h-47.9a2.883,2.883,0,0,1-2.88-2.88v-14.3a22,22,0,0,1,1.428-7.821,22.39,22.39,0,0,1,17.176-14.115A.5.5,0,0,1,52.942,119.383Zm8.141,10.4a.5.5,0,0,1-.378-.173l-7.956-9.187a21.448,21.448,0,0,0-17.493,20.9v14.3a1.882,1.882,0,0,0,1.88,1.88h47.9a1.882,1.882,0,0,0,1.88-1.88v-14.3a21.448,21.448,0,0,0-17.493-20.9l-7.956,9.187A.5.5,0,0,1,61.083,129.783Zm-9.048-7.746a.5.5,0,0,1,.378.173l8.67,10.011,8.67-10.01a.5.5,0,0,1,.495-.159,20.033,20.033,0,0,1,15.24,19.274v14.26a.5.5,0,0,1-.5.5H37.179a.5.5,0,0,1-.5-.5V141.325a20.035,20.035,0,0,1,15.24-19.274A.5.5,0,0,1,52.035,122.037Zm9.048,11.448a.5.5,0,0,1-.378-.173L51.858,123.1a19.029,19.029,0,0,0-14.179,18.228v13.761H84.487v-13.76A19.027,19.027,0,0,0,70.307,123.1l-8.847,10.215A.5.5,0,0,1,61.083,133.485Z" transform="translate(-34.755 -85.306)" fill="#4adda4"/>
      <path id="Caminho_49" data-name="Caminho 49" d="M165.389,196.62a1.212,1.212,0,0,1-1.212-1.212V184.054a1.212,1.212,0,1,1,2.423,0v11.355A1.212,1.212,0,0,1,165.389,196.62Z" transform="translate(-126.849 -130.106)" fill="#4adda4"/>
      <path id="Path_49_-_Outline" data-name="Path 49 - Outline" d="M165.389,197.12a1.714,1.714,0,0,1-1.712-1.712V184.054a1.712,1.712,0,1,1,3.423,0v11.355A1.714,1.714,0,0,1,165.389,197.12Zm0-13.778a.713.713,0,0,0-.712.712v11.355a.712.712,0,1,0,1.423,0V184.054A.713.713,0,0,0,165.389,183.342Z" transform="translate(-126.849 -130.106)" fill="#4adda4"/>
      <path id="Caminho_50" data-name="Caminho 50" d="M157.062,204.952H145.708a1.212,1.212,0,1,1,0-2.423h11.354a1.212,1.212,0,0,1,0,2.423Z" transform="translate(-112.844 -144.115)" fill="#4adda4"/>
      <path id="Path_50_-_Outline" data-name="Path 50 - Outline" d="M157.062,205.452H145.708a1.712,1.712,0,1,1,0-3.423h11.354a1.712,1.712,0,0,1,0,3.423Zm-11.354-2.423a.712.712,0,0,0,0,1.423h11.354a.712.712,0,0,0,0-1.423Z" transform="translate(-112.844 -144.115)" fill="#4adda4"/>
    </g>
  </g>
</svg>
