<svg xmlns="http://www.w3.org/2000/svg" width="113" height="113" viewBox="0 0 113 113">
  <g id="Grupo_117" data-name="Grupo 117" transform="translate(-365 -923)">
    <circle id="Elipse_7" data-name="Elipse 7" cx="56.5" cy="56.5" r="56.5" transform="translate(365 923)" fill="#ebfff7"/>
    <g id="heart-beat-2936" transform="translate(516.392 1071.633)">
      <g id="Grupo_37" data-name="Grupo 37" transform="translate(-126.037 -115.72)">
        <path id="Caminho_57" data-name="Caminho 57" d="M31.145,67.491a2.08,2.08,0,0,1-.929-.219C8.484,56.406.364,40.673.012,29.574c-.237-7.5,2.874-13.865,8.324-17.037,6.141-3.573,14.2-2.813,22.809,2.12,8.6-4.933,16.67-5.693,22.809-2.12,5.45,3.172,8.561,9.541,8.323,17.037-.352,11.1-8.472,26.832-30.2,37.7A2.075,2.075,0,0,1,31.145,67.491Zm-14.24-53.02a12.7,12.7,0,0,0-6.48,1.656c-4.171,2.427-6.453,7.281-6.262,13.316.309,9.748,7.58,23.626,26.982,33.643,19.4-10.017,26.672-23.894,26.982-33.643.191-6.035-2.091-10.888-6.262-13.316-5.018-2.92-11.991-1.955-19.638,2.716a2.074,2.074,0,0,1-2.164,0C25.315,15.942,20.827,14.471,16.905,14.471Z" transform="translate(0.001 -10.316)" fill="#49dca4"/>
        <path id="Caminho_58" data-name="Caminho 58" d="M70.568,102.54h-.05a2.075,2.075,0,0,1-1.818-1.17L61.432,86.381l-2.567,5.2A2.076,2.076,0,0,1,57,92.741H49.365a2.076,2.076,0,0,1,0-4.153h6.346l3.875-7.852a2.076,2.076,0,0,1,1.862-1.157h.007a2.076,2.076,0,0,1,1.861,1.17l7.36,15.179,3.2-5.863A2.078,2.078,0,0,1,75.7,88.983h8.435a2.076,2.076,0,0,1,0,4.153h-7.2l-4.54,8.321A2.077,2.077,0,0,1,70.568,102.54Z" transform="translate(-35.603 -62.463)" fill="#49dca4"/>
      </g>
    </g>
  </g>
</svg>
