<svg xmlns="http://www.w3.org/2000/svg" width="205" height="205" viewBox="0 0 205 205">
  <g id="Grupo_116" data-name="Grupo 116" transform="translate(-508 -719)">
    <circle id="Elipse_6" data-name="Elipse 6" cx="102.5" cy="102.5" r="102.5" transform="translate(508 719)" fill="#ebfff7"/>
    <g id="Grupo_40" data-name="Grupo 40" transform="translate(558.25 758.584)">
      <path id="Caminho_64" data-name="Caminho 64" d="M111.3,57.449h-.388V50.477A45.908,45.908,0,0,0,82.808,8.294V7.249A7.256,7.256,0,0,0,75.559,0H54.88a7.257,7.257,0,0,0-7.249,7.249V8.294A45.907,45.907,0,0,0,19.525,50.477v6.972h-.388a6.173,6.173,0,0,0-6.166,6.165v5.371a6.173,6.173,0,0,0,6.166,6.166H111.3a6.173,6.173,0,0,0,6.165-6.166V63.614A6.171,6.171,0,0,0,111.3,57.449ZM24.7,50.477a40.708,40.708,0,0,1,22.93-36.485V26.884a2.589,2.589,0,0,0,5.177,0V7.249A2.074,2.074,0,0,1,54.88,5.177h7.752V37.952a2.589,2.589,0,1,0,5.177,0V5.177h7.75a2.074,2.074,0,0,1,2.072,2.072V26.884a2.589,2.589,0,0,0,5.177,0V13.991A40.7,40.7,0,0,1,105.74,50.477v6.972H24.7Zm87.59,18.509a.989.989,0,0,1-.988.989H19.137a.99.99,0,0,1-.989-.989V63.614a.989.989,0,0,1,.989-.988h92.169a.988.988,0,0,1,.988.988v5.371Z" transform="translate(-12.971)" fill="#49dca4"/>
      <path id="Caminho_65" data-name="Caminho 65" d="M112.007,180.56h-2.717c-.425-3.854-3.242-6.843-6.653-6.843H27.8c-3.411,0-6.228,2.99-6.653,6.843H18.434a5.47,5.47,0,0,0-5.463,5.463v4.455a5.469,5.469,0,0,0,5.463,5.462h2.655v5.866c0,4.478,3.108,8.121,6.928,8.121H52.336A15.713,15.713,0,0,0,63.4,205.2a2.385,2.385,0,0,1,3.645,0,15.709,15.709,0,0,0,11.062,4.72h24.319c3.82,0,6.927-3.642,6.927-8.121V195.94h2.656a5.468,5.468,0,0,0,5.462-5.462v-4.455A5.469,5.469,0,0,0,112.007,180.56Zm-93.574,10.2a.286.286,0,0,1-.286-.285v-4.455a.286.286,0,0,1,.286-.286h2.655v5.026Zm85.742,11.044c0,1.685-.924,2.943-1.75,2.943H78.107a10.633,10.633,0,0,1-7.451-3.254,7.571,7.571,0,0,0-10.868,0,10.632,10.632,0,0,1-7.453,3.255H28.016c-.827,0-1.751-1.259-1.751-2.943V181.567c0-1.632.911-2.673,1.538-2.673h74.834c.711,0,1.538,1.167,1.538,2.673v20.239Zm8.117-11.328a.286.286,0,0,1-.285.285h-2.656v-5.026h2.656a.286.286,0,0,1,.285.286Z" transform="translate(-12.971 -93.438)" fill="#49dca4"/>
      <path id="Caminho_66" data-name="Caminho 66" d="M52.242,201.971a2.589,2.589,0,0,1-1.83-4.419l5.163-5.163a2.588,2.588,0,0,1,3.66,3.66l-5.163,5.163A2.576,2.576,0,0,1,52.242,201.971Z" transform="translate(-32.701 -103.074)" fill="#49dca4"/>
      <path id="Caminho_67" data-name="Caminho 67" d="M60.538,214.584a2.589,2.589,0,0,1-1.83-4.419l11.3-11.3a2.588,2.588,0,1,1,3.66,3.66l-11.3,11.3A2.576,2.576,0,0,1,60.538,214.584Z" transform="translate(-37.164 -106.557)" fill="#49dca4"/>
    </g>
  </g>
</svg>
