<svg id="Componente_16_17" data-name="Componente 16 – 17" xmlns="http://www.w3.org/2000/svg" width="55" height="55" viewBox="0 0 55 55">
  <circle id="Elipse_10" data-name="Elipse 10" cx="27.5" cy="27.5" r="27.5" fill="#00a46d"/>
  <g id="instagram-logo" transform="translate(9.847 9.847)">
    <path id="Caminho_19" data-name="Caminho 19" d="M25.563,0H9.743A9.754,9.754,0,0,0,0,9.743v15.82a9.754,9.754,0,0,0,9.743,9.743h15.82a9.754,9.754,0,0,0,9.743-9.743V9.743A9.754,9.754,0,0,0,25.563,0Zm6.611,25.563a6.618,6.618,0,0,1-6.611,6.611H9.743a6.618,6.618,0,0,1-6.61-6.611V9.743a6.618,6.618,0,0,1,6.61-6.611h15.82a6.618,6.618,0,0,1,6.611,6.611v15.82Z" fill="#ebfff7"/>
    <path id="Caminho_20" data-name="Caminho 20" d="M50.065,40.97a9.1,9.1,0,1,0,9.1,9.1A9.108,9.108,0,0,0,50.065,40.97Zm0,15.062a5.965,5.965,0,1,1,5.965-5.965A5.972,5.972,0,0,1,50.065,56.032Z" transform="translate(-32.412 -32.414)" fill="#ebfff7"/>
    <path id="Caminho_21" data-name="Caminho 21" d="M121.218,28.251a2.3,2.3,0,1,0,1.625.672A2.306,2.306,0,0,0,121.218,28.251Z" transform="translate(-94.086 -22.351)" fill="#ebfff7"/>
  </g>
</svg>
