<svg xmlns="http://www.w3.org/2000/svg" width="122" height="122" viewBox="0 0 122 122">
  <g id="Grupo_118" data-name="Grupo 118" transform="translate(-1717 -281)">
    <circle id="Elipse_8" data-name="Elipse 8" cx="61" cy="61" r="61" transform="translate(1717 281)" fill="#ebfff7"/>
    <g id="Grupo_39" data-name="Grupo 39" transform="translate(1747.312 307.936)">
      <path id="Caminho_62" data-name="Caminho 62" d="M43.179,68.128a2.646,2.646,0,0,1-1.385-.391C22.64,56,13.056,39.721,12.492,17.985a2.651,2.651,0,0,1,1.381-2.4L41.912.322a2.651,2.651,0,0,1,2.534,0L72.485,15.589a2.65,2.65,0,0,1,1.381,2.4C73.3,39.72,63.717,55.994,44.564,67.737A2.645,2.645,0,0,1,43.179,68.128ZM17.85,19.458c.911,18.475,9.213,32.533,25.329,42.893C59.294,51.991,67.6,37.934,68.508,19.458L43.179,5.666Z" transform="translate(-12.491 0)" fill="#4adda4"/>
      <path id="Caminho_63" data-name="Caminho 63" d="M93.068,110.837a2.268,2.268,0,0,1-1.724-.793l-8.173-9.533a2.271,2.271,0,0,1,3.448-2.955l6.395,7.459L102.051,93.8a2.271,2.271,0,0,1,3.537,2.851L94.836,109.991a2.271,2.271,0,0,1-1.734.846Z" transform="translate(-63.669 -67.832)" fill="#4adda4"/>
    </g>
  </g>
</svg>
